# xmcd
#
# Track frame offsets:
#	182
#	15700
#	30217
#	43602
#	56692
#	69552
#	83735
#	96272
#	108785
#	123792
#	140165
#	154140
#	167470
#	180932
#	205340
#	219212
#
# Disc length: 3161 seconds
# Revision: 0
# Processed by: cddbd v1.5.2PL0 Copyright (c) Steve Scherf et al.
# Submitted via: dBpowerAMP V12.0
#
DISCID=c80c5710
DTITLE=Various Artist - The Very Best Of Dionne Warwick
DYEAR=2000
DGENRE=Pop
TTITLE0=Dionne Warwick - Don't Make Me Over
TTITLE1=Dionne Warwick - Anyone Who Had A Heart
TTITLE2=Dionne Warwick - Walk On By
TTITLE3=Dionne Warwick - Reach Out For Me
TTITLE4=Dionne Warwick - Are You There (With Another Girl)
TTITLE5=Dionne Warwick - Message To Michael
TTITLE6=Dionne Warwick - Trains and Boats and Planes
TTITLE7=Dionne Warwick - Alfie
TTITLE8=Dionne Warwick - The Windows Of The World
TTITLE9=Dionne Warwick - (Theme From) Valley Of The Dolls
TTITLE10=Dionne Warwick - I Say A Little Prayer
TTITLE11=Dionne Warwick - Do You Know The Way To San José
TTITLE12=Dionne Warwick - Promises, Promises
TTITLE13=Dionne Warwick - This Girl's In Love With You
TTITLE14=Dionne Warwick - I'll Never Fall In Love Again
TTITLE15=Dionne Warwick and Spinners - Then Came You
EXTD=
EXTT0=
EXTT1=
EXTT2=
EXTT3=
EXTT4=
EXTT5=
EXTT6=
EXTT7=
EXTT8=
EXTT9=
EXTT10=
EXTT11=
EXTT12=
EXTT13=
EXTT14=
EXTT15=
PLAYORDER=
